<?xml version="1.0" encoding="UTF-8" standalone="no"?>
<!-- Created with Inkscape (http://www.inkscape.org/) -->

<svg
   width="1920"
   height="1080"
   viewBox="0 0 1920 1080"
   version="1.1"
   id="svg5"
   xml:space="preserve"
   inkscape:version="1.2.1 (9c6d41e410, 2022-07-14)"
   sodipodi:docname="desenho3.svg"
   xmlns:inkscape="http://www.inkscape.org/namespaces/inkscape"
   xmlns:sodipodi="http://sodipodi.sourceforge.net/DTD/sodipodi-0.dtd"
   xmlns="http://www.w3.org/2000/svg"
   xmlns:svg="http://www.w3.org/2000/svg"><sodipodi:namedview
     id="namedview7"
     pagecolor="#ffffff"
     bordercolor="#000000"
     borderopacity="0.25"
     inkscape:showpageshadow="2"
     inkscape:pageopacity="0.0"
     inkscape:pagecheckerboard="0"
     inkscape:deskcolor="#d1d1d1"
     inkscape:document-units="px"
     showgrid="false"
     inkscape:zoom="0.91113655"
     inkscape:rotation="1"
     inkscape:cx="1000.2472"
     inkscape:cy="517.11931"
     inkscape:window-width="1920"
     inkscape:window-height="1017"
     inkscape:window-x="1072"
     inkscape:window-y="457"
     inkscape:window-maximized="1"
     inkscape:current-layer="layer3" /><defs
     id="defs2"><inkscape:path-effect
       effect="spiro"
       id="path-effect4459"
       is_visible="true"
       lpeversion="1" /><inkscape:path-effect
       effect="spiro"
       id="path-effect3508"
       is_visible="true"
       lpeversion="1" /><inkscape:path-effect
       effect="spiro"
       id="path-effect2541"
       is_visible="true"
       lpeversion="1" /><inkscape:path-effect
       effect="spiro"
       id="path-effect3508-2"
       is_visible="true"
       lpeversion="1" /><inkscape:path-effect
       effect="spiro"
       id="path-effect3508-7"
       is_visible="true"
       lpeversion="1" /><inkscape:path-effect
       effect="spiro"
       id="path-effect4459-8"
       is_visible="true"
       lpeversion="1" /><inkscape:path-effect
       effect="spiro"
       id="path-effect3508-9"
       is_visible="true"
       lpeversion="1" /></defs><path
     style="display:inline;fill:#ffdd55;fill-opacity:1;stroke:none;stroke-width:1.01749;stroke-opacity:1"
     d="m 876.54024,349.03925 117.02388,-42.67424 7.86578,-91.61716 -57.77758,36.5641 -40.77867,-60.1206 -3.98897,76.90393 -97.90837,-49.17696 z"
     id="path4700"
     sodipodi:nodetypes="cccccccc" /><g
     inkscape:groupmode="layer"
     id="layer2"
     inkscape:label="Camada 2"
     style="display:inline"><path
       style="display:inline;fill:#8993f0;fill-opacity:1;stroke:none;stroke-opacity:1"
       d="m 1079.3647,556.4465 c 11.6999,-32.22634 31.4157,-60.80483 47.7416,-90.95261 16.3259,-30.14778 29.6101,-63.65801 26.5841,-97.80867 -2.1053,-23.7598 -12.2742,-46.63087 -28.0013,-64.56461 -15.7271,-17.93374 -36.8743,-30.92389 -59.8011,-37.50571 -23.0036,-6.60387 -47.6357,-6.8276 -71.07295,-1.98253 -23.43723,4.84508 -45.70412,14.66078 -65.87716,27.53815 -40.34608,25.75475 -71.85938,63.123 -100.11638,101.7579 -32.04795,43.81814 -60.94417,90.3683 -80.68515,140.93898 -19.74099,50.57069 -30.09503,105.46512 -24.44527,159.45753 5.64975,53.99242 28.08263,106.98778 66.94321,144.89499 19.43029,18.9536 42.77336,33.98459 68.31956,43.15885 25.54619,9.17427 53.28587,12.42492 80.17254,8.69905 13.17032,-1.8251 26.16872,-5.32433 38.14355,-11.10291 26.49775,-12.78676 46.82125,-36.32282 59.66975,-62.79062 12.8486,-26.46781 18.7406,-55.81113 21.6785,-85.08568 5.8757,-58.5491 0.6658,-119.34131 20.7465,-174.65211 z"
       id="path2539"
       inkscape:path-effect="#path-effect2541"
       inkscape:original-d="m 1079.3647,556.4465 c 34.0306,-107.51047 91.1555,-132.05454 74.3257,-188.76128 -16.8298,-56.70673 -58.5339,-68.04588 -87.8024,-102.07032 -131.59679,-140.08297 -106.31392,-46.4815 -237.06649,127.31352 -44.99974,60.72901 73.53759,331.43393 110.30489,497.1494 36.7673,165.71548 25.43003,-7.40094 38.14355,-11.10291 12.71351,-3.70197 68.06415,-215.01794 102.09475,-322.52841 z"
       sodipodi:nodetypes="cscccsc"
       inkscape:label="path2539" /><path
       style="fill:#8993f0;fill-opacity:1;stroke:none;stroke-width:0.837711;stroke-opacity:1"
       d="m 987.60407,711.91201 c -52.36752,5.05712 -106.61451,-15.83522 -142.06137,-54.71262 -14.41621,-15.81141 -25.69693,-34.16031 -37.61294,-51.9321 -11.916,-17.77179 -24.76428,-35.29996 -41.51776,-48.60968 -18.11892,-14.39449 -39.96385,-23.19572 -61.69359,-31.15278 -21.72974,-7.95706 -43.89959,-15.36525 -63.59526,-27.51337 -7.34402,-4.52973 -14.30744,-9.69861 -21.95329,-13.69787 -7.64586,-3.99925 -16.18685,-6.82272 -24.791,-6.17328 -4.30207,0.32472 -8.56332,1.53352 -12.27167,3.73837 -3.70836,2.20486 -6.845,5.42694 -8.7281,9.30859 -1.8831,3.88166 -2.46676,8.42334 -1.38829,12.60068 1.07847,4.17735 3.86361,7.93333 7.66583,9.97205 2.37125,1.27144 5.05712,1.86495 7.73851,2.08755 2.68139,0.2226 5.3778,0.0882 8.06635,-0.0171 42.15107,-1.65141 85.76355,4.33464 122.17563,25.63254 36.29734,21.23078 62.50643,55.69781 88.93899,88.40198 15.68009,19.40047 31.87736,38.58499 51.02924,54.56777 19.15188,15.98277 41.54245,28.73956 66.02757,33.50634 21.312,4.14904 43.80412,2.03696 63.97115,-6.00708 z"
       id="path4457"
       inkscape:path-effect="#path-effect4459"
       inkscape:original-d="M 987.60407,711.91201 C 940.63275,693.92123 892.89751,675.43761 845.5427,657.19939 798.18789,638.96116 792.78992,590.17222 766.412,556.65761 740.03406,523.14301 682.88712,517.54753 641.12315,497.99146 599.35916,478.4354 600.14649,508.49117 579.65663,513.74 c -20.48985,5.24882 10.53761,1.38099 15.80486,2.07046 5.26727,0.68948 81.45145,17.08904 122.17563,25.63254 40.72418,8.54349 59.29368,58.93534 88.93899,88.40198 29.64532,29.46664 78.0389,58.71675 117.05681,88.07411 39.01791,29.35735 42.64846,-4.00404 63.97115,-6.00708 z" /><path
       style="display:inline;fill:#8993f0;fill-opacity:1;stroke:none;stroke-width:0.766967;stroke-opacity:1"
       d="m 976.47021,516.56202 c 47.92219,4.60724 97.55419,-14.53493 129.97199,-50.12784 13.1933,-14.48555 23.5119,-31.29489 34.4116,-47.57651 10.8997,-16.28162 22.6526,-32.34138 37.9851,-44.54012 16.5718,-13.18475 36.556,-21.25565 56.4369,-28.55033 19.8809,-7.29469 40.1653,-14.08311 58.1898,-25.19975 6.7194,-4.14423 13.0916,-8.87197 20.0883,-12.52877 6.9967,-3.65679 14.8123,-6.23685 22.6843,-5.63946 3.936,0.29869 7.8343,1.40621 11.2265,3.42476 3.3922,2.01854 6.261,4.96745 7.983,8.51939 1.7219,3.55193 2.2551,7.7073 1.2679,11.52919 -0.9872,3.82189 -3.5355,7.25817 -7.0141,9.12376 -2.1694,1.16345 -4.6267,1.70684 -7.0799,1.91098 -2.4532,0.20414 -4.9203,0.0818 -7.3801,-0.014 -38.567,-1.50204 -78.4705,3.98459 -111.7784,23.48459 -33.2248,19.45131 -57.1969,51.0294 -81.3703,80.99412 -14.3377,17.77259 -29.1482,35.34893 -46.669,49.99324 -17.5208,14.64431 -38.0128,26.33439 -60.4264,30.70047 -19.4986,3.79824 -40.07848,1.86298 -58.52719,-5.5037 z"
       id="path4457-3"
       inkscape:path-effect="#path-effect4459-8"
       inkscape:original-d="m 976.47021,516.56202 c 42.97409,-16.48322 86.64719,-33.41794 129.97199,-50.12784 43.3249,-16.7099 48.2636,-61.41046 72.3967,-92.11663 24.1331,-30.70614 76.4169,-35.83274 114.6267,-53.75008 38.2099,-17.91729 37.4897,9.61988 56.2359,14.42887 18.746,4.80898 -9.6409,1.26527 -14.46,1.89696 -4.8191,0.63171 -74.5199,15.65703 -111.7784,23.48459 -37.2586,7.82758 -54.2478,53.9967 -81.3703,80.99412 -27.1226,26.9974 -71.3978,53.79642 -107.0954,80.69371 -35.69739,26.89729 -39.01899,-3.66852 -58.52719,-5.5037 z" /><path
       style="fill:#4d4d4d;fill-opacity:1;stroke:none;stroke-opacity:1"
       d="m 963.33427,493.91754 c 55.60213,20.99988 96.54133,26.47197 159.27743,-35.38016 -8.9419,9.09065 -89.6498,49.19438 -159.27743,35.38016 z"
       id="path4491"
       sodipodi:nodetypes="ccc" /></g><g
     inkscape:groupmode="layer"
     id="layer3"
     inkscape:label="Camada 3"
     style="display:inline"><path
       style="fill:#ffffff;stroke:none;stroke-opacity:1"
       d="m 920.13133,402.25517 c -5.68674,2.78733 -10.51177,7.30351 -13.66864,12.79372 -3.15687,5.49021 -4.63277,11.93215 -4.181,18.24912 0.52316,7.3153 3.6514,14.41762 8.69531,19.74174 5.04391,5.32413 11.96688,8.83143 19.24325,9.74896 9.85766,1.24303 20.21371,-2.41924 27.09844,-9.58296 6.88473,-7.16373 10.13295,-17.65701 8.49953,-27.45755 -1.63343,-9.80053 -8.10929,-18.67314 -16.94524,-23.21675 -8.83596,-4.54361 -19.81998,-4.64919 -28.74165,-0.27628 z"
       id="path3506"
       inkscape:path-effect="#path-effect3508"
       inkscape:original-d="m 920.13133,402.25517 c -3.36398,-20.17885 -11.89876,20.69623 -17.84964,31.04284 -5.95088,10.34662 18.62671,19.66147 27.93856,29.4907 9.31186,9.82924 -6.72495,-40.35469 -10.08892,-60.53354 z" /><path
       style="fill:#1a1a1a;stroke:none;stroke-width:0.459385;stroke-opacity:1"
       d="m 912.23001,408.75295 c -4.50433,5.03822 -6.82108,11.968 -6.25248,18.70219 0.58588,6.93887 4.23484,13.56344 9.78648,17.76707 3.83276,2.90211 8.52112,4.6596 13.31713,4.99208 4.79602,0.33248 9.68204,-0.76127 13.87859,-3.10675 4.19655,-2.34549 7.68817,-5.93408 9.91786,-10.19328 2.22968,-4.25921 3.18921,-9.17334 2.72552,-13.95846 -0.4637,-4.78511 -2.34891,-9.42358 -5.35489,-13.17543 -3.00599,-3.75185 -7.12167,-6.60327 -11.69048,-8.09936 -4.56882,-1.49609 -9.57393,-1.63135 -14.21687,-0.3842 -4.64295,1.24715 -8.90663,3.87212 -12.11086,7.45614 z"
       id="path3506-5"
       inkscape:path-effect="#path-effect3508-2"
       inkscape:original-d="m 912.23001,408.75295 c -1.17836,-12.15702 -4.16797,12.46873 -6.25248,18.70219 -2.0845,6.23346 6.52467,11.84531 9.78648,17.76707 3.26182,5.92175 -2.35565,-24.31223 -3.534,-36.46926 z" /><path
       style="fill:#ececec;stroke:none;stroke-width:0.156878;stroke-opacity:1"
       d="m 918.88855,409.51505 c -0.86361,0.55314 -1.57265,1.34491 -2.02754,2.26407 -0.45488,0.91917 -0.65432,1.96313 -0.57029,2.98525 0.0934,1.13621 0.53858,2.24104 1.25902,3.12459 0.72043,0.88355 1.71302,1.54203 2.80716,1.86226 1.81561,0.53138 3.88785,0.0793 5.31721,-1.1599 1.42937,-1.23925 2.17062,-3.22647 1.902,-5.09908 -0.26862,-1.8726 -1.53861,-3.57132 -3.2587,-4.35878 -1.72009,-0.78746 -3.83584,-0.63875 -5.42886,0.38159 z"
       id="path3506-7"
       inkscape:path-effect="#path-effect3508-7"
       inkscape:original-d="m 918.88855,409.51505 c -0.48959,-3.41223 -1.73174,3.49971 -2.59783,5.24932 -0.8661,1.7496 2.71093,3.32474 4.06618,4.98685 1.35524,1.66212 -0.97875,-6.82394 -1.46835,-10.23617 z" /></g></svg>
